<svg height="512" viewBox="0 0 60 60" width="512" xmlns="http://www.w3.org/2000/svg"><g id="Page-1" fill="none" fill-rule="evenodd"><g id="063---Logo"><circle id="Oval" cx="30" cy="30" fill="#e7ecfb" r="29"/><path id="Path" d="m30 1c-.5033333 0-1.0033333.01266667-1.5.038 15.4192225.79012792 27.5158989 13.5225465 27.5158989 28.962s-12.0966764 28.1718721-27.5158989 28.962c.4973333.0253333.9973333.038 1.5.038 16.0162576-.0000002 28.9999996-12.9837424 28.9999996-29s-12.983742-28.99999976-28.9999996-29z" fill="#c9d8fb"/><path id="Path" d="m46.77 32.77c-1.0803159 6.5385266-5.8618505 11.8532368-12.2502248 13.6162134s-13.2189249-.3471885-17.4997752-5.4062134l7.27-7.27c.3930079-.3899779 1.0269921-.3899779 1.42 0l2.79 2.79 4.79-4.79c.3930079-.3899779 1.0269921-.3899779 1.42 0l2.79 2.79 4.79-4.79c.3930079-.3899779 1.0269921-.3899779 1.42 0z" fill="#a3c1f6"/><path id="Path" d="m43.71 29.71c-.3930079-.3899779-1.0269921-.3899779-1.42 0l-.79.79 2.27 2.27c-1.2570667 7.6090492-7.4787634 13.4185934-15.156 14.152.459.038.917.078 1.386.078 8.3196188.0011176 15.4168503-6.0211606 16.77-14.23z" fill="#7fabf9"/><path id="Path" d="m47 30c-.0003961.9280858-.0773235 1.8545585-.23 2.77l-3.06-3.06c-.3930079-.3899779-1.0269921-.3899779-1.42 0l-4.79 4.79-2.79-2.79c-.3930079-.3899779-1.0269921-.3899779-1.42 0l-4.79 4.79-2.79-2.79c-.3930079-.3899779-1.0269921-.3899779-1.42 0l-7.27 7.27c-4.8554837-5.7408786-5.3629897-13.9894763-1.2478944-20.2822817 4.1150953-6.2928053 11.8752118-9.1349027 19.0811669-6.988366 7.2059551 2.1465368 12.1459056 8.7717776 12.1467275 16.2906477z" fill="#e7ecfb"/><path id="Path" d="m30 13c-.506 0-1 .032-1.5.076 8.7712615.7731558 15.4987719 8.1187291 15.5 16.924l2.77 2.77c.8192355-4.9265553-.5713837-9.9639814-3.8020133-13.7725411-3.2306295-3.8085597-7.9737829-6.0021822-12.9679867-5.9974589z" fill="#c9d8fb"/><circle id="Oval" cx="25" cy="24" fill="#e7ecfb" r="3"/><path id="Path" d="m30 59c.5033333 0 1.0033333-.0126667 1.5-.038-15.4192225-.7901279-27.51589893-13.5225465-27.51589893-28.962s12.09667643-28.17187208 27.51589893-28.962c-.4966667-.02533333-.9966667-.038-1.5-.038-16.0162576.00000024-28.99999957 12.9837424-28.99999957 29s12.98374197 28.9999998 28.99999957 29z" fill="#fff"/><path id="Path" d="m1.154 21.832 1.925.544-.479 1.869c-.12.632-.2 1.272-.3 1.907l-.147.954-.05.965-.103 1.929h-2l.1-2.066.06-1.034.155-1.023c.109-.681.2-1.366.325-2.043z" fill="#fff"/><g fill="#428dff"><path id="Path" d="m1.325 27.011c-.55228475.0030376-1.00246243-.4422153-1.0055-.9945s.44221525-1.0024624.9945-1.0055h.011c.55228475 0 1 .4477153 1 1s-.44771525 1-1 1z"/><path id="Path" d="m30 0c-6.527709.01749196-12.8724627 2.15861817-18.076 6.1-2.58606715 1.95398329-4.84291349 4.3090708-6.685 6.976-1.81070772 2.6887945-3.18907973 5.644618-4.085 8.76-.15022144.5315741.15892594 1.0842785.69050001 1.2345.53157406.1502214 1.08427853-.1589259 1.23449999-.6905.83540038-2.9087635 2.12095999-5.6688364 3.81-8.18 5.2452677-7.60110041 13.875865-12.15708187 23.111-12.2 15.463973 0 28 12.536027 28 28s-12.536027 28-28 28-28-12.536027-28-28c0-.5522847-.44771525-1-1-1s-1 .4477153-1 1c0 16.5685425 13.4314575 30 30 30s30-13.4314575 30-30-13.4314575-30-30-30z"/><path id="Shape" d="m30 12c-7.0026002-.0075431-13.3725907 4.0510114-16.3245813 10.4009891-2.9519906 6.3499778-1.9489279 13.8361323 2.5705813 19.1850109.0199506.0348695.0423397.068286.067.1.018.018.043.024.063.041 4.5506393 5.3085124 11.7683765 7.4936559 18.4992685 5.6005858 6.730892-1.89307 11.7514097-7.5202349 12.8677315-14.4225858.0123798-.0505544.0204091-.1020759.024-.154.8476408-5.1966651-.6391252-10.5026976-4.063589-14.5023064-3.4244638-3.9996087-8.4382004-6.28585-13.703411-6.2486936zm0 34c-4.3856901-.0017976-8.5769107-1.8103851-11.587-5l6.587-6.583 2.086 2.083-3.793 3.793c-.2599566.2510745-.3642126.6228779-.2726972.9725073.0915155.3496295.3645604.6226744.7141899.7141899.3496294.0915154.7214328-.0127406.9725073-.2726972l9.293-9.293 2.086 2.086-3.793 3.793c-.2599566.2510745-.3642126.6228779-.2726972.9725073.0915155.3496295.3645604.6226744.7141899.7141899.3496294.0915154.7214328-.0127406.9725073-.2726972l9.3-9.29 2.689 2.689c-1.491528 7.4888016-8.0601162 12.8847864-15.696 12.894zm15.972-15.443-1.555-1.557c-.7837379-.7798053-2.0502621-.7798053-2.834 0l-4.083 4.086-2.086-2.086c-.7809997-.7807639-2.0470003-.7807639-2.828 0l-4.086 4.086-2.083-2.086c-.7837379-.7798053-2.0502621-.7798053-2.834 0l-6.457 6.46c-4.1098598-5.591442-4.1441067-13.1955064-.0847778-18.8237405s11.2855188-7.9957535 17.8883181-5.8607567c6.6027993 2.1349969 11.0748376 8.2851059 11.0704597 15.2244972 0 .188-.022.371-.028.557z" fill-rule="nonzero"/><path id="Path" d="m41.86 9.131c-6.6203786-3.7592076-14.6312634-4.15598426-21.5907129-1.06938136-6.9594495 3.08660286-12.04271945 9.29080106-13.7002871 16.72138136-.05777592.2591342-.01013148.5306073.13243154.7545813s.36834116.3820621.62756846.4394187c.07135722.0150625.14407072.0227695.217.023.46823311-.0005487.87339367-.3259237.975-.783 1.5200956-6.8109241 6.1797844-12.4975771 12.5589901-15.32690771 6.3792058-2.82933057 13.7221486-2.46613216 19.7910099.97890771.3109625.1842591.6971558.1863691 1.010113.0055187.3129573-.1808505.5039622-.5165092.4995855-.8779369-.0043767-.36142768-.2034537-.69236276-.5206985-.8655818z"/><path id="Path" d="m53.431 24.783c-1.0660202-4.825811-3.6046305-9.2013757-7.265-12.522-.4081384-.3722399-1.0407601-.3431384-1.413.065s-.3431384 1.0407601.065 1.413c3.3557283 3.0436119 5.6832789 7.0543649 6.661 11.478.1016063.4570763.5067669.7824513.975.783.0729293-.0002305.1456428-.0079375.217-.023.2592273-.0573566.4850054-.2154447.6275685-.4394187.142563-.223974.1902074-.4954471.1324315-.7545813z"/><path id="Path" d="m30 52c-3.810996.0013848-7.5569925-.987233-10.871-2.869-.3109625-.1842591-.6971558-.1863691-1.010113-.0055187-.3129573.1808505-.5039622.5165092-.4995855.8779369s.2034537.6923628.5206985.8655818c6.6203786 3.7592076 14.6312634 4.1559843 21.5907129 1.0693814s12.0427194-9.2908011 13.7002871-16.7213814c.0849346-.3515131-.0265289-.7214954-.2915036-.9675925s-.6421719-.3299616-.9864612-.2193259-.6020229.3985322-.6740352.7529184c-2.2851911 10.0353019-11.1869041 17.1706803-21.479 17.217z"/><path id="Path" d="m6.569 35.217c1.06602024 4.825811 3.6046305 9.2013757 7.265 12.522.2640193.240797.6364468.32245.9769928.2142011.3405459-.1082489.5974733-.3899541.674-.739s-.0389735-.7124041-.3029928-.9532011c-3.3557283-3.0436119-5.68327887-7.0543649-6.661-11.478-.07201232-.3543862-.32974592-.6422827-.6740352-.7529184s-.7214865-.0267712-.98646123.2193259c-.26497472.2460971-.37643814.6160794-.29150357.9675925z"/><circle id="Oval" cx="5" cy="30" r="1"/><circle id="Oval" cx="9" cy="30" r="1"/><circle id="Oval" cx="51" cy="30" r="1"/><circle id="Oval" cx="55" cy="30" r="1"/><path id="Shape" d="m30 23h-1.142c-.0928199-.3580374-.2359091-.7011148-.425-1.019l.81-.809c.2599566-.2510745.3642126-.6228779.2726972-.9725073-.0915155-.3496295-.3645604-.6226744-.7141899-.7141899-.3496294-.0915154-.7214328.0127406-.9725073.2726972l-.81.809c-.3178852-.1890909-.6609626-.3321801-1.019-.425v-1.142c0-.5522847-.4477153-1-1-1s-1 .4477153-1 1v1.142c-.3580374.0928199-.7011148.2359091-1.019.425l-.81-.809c-.2510745-.2599566-.6228779-.3642126-.9725073-.2726972-.3496295.0915155-.6226744.3645604-.7141899.7141899-.0915154.3496294.0127406.7214328.2726972.9725073l.81.809c-.1890909.3178852-.3321801.6609626-.425 1.019h-1.142c-.5522847 0-1 .4477153-1 1s.4477153 1 1 1h1.142c.0928199.3580374.2359091.7011148.425 1.019l-.81.809c-.2599566.2510745-.3642126.6228779-.2726972.9725073.0915155.3496295.3645604.6226744.7141899.7141899.3496294.0915154.7214328-.0127406.9725073-.2726972l.81-.809c.3178852.1890909.6609626.3321801 1.019.425v1.142c0 .5522847.4477153 1 1 1s1-.4477153 1-1v-1.142c.3580374-.0928199.7011148-.2359091 1.019-.425l.81.809c.2510745.2599566.6228779.3642126.9725073.2726972.3496295-.0915155.6226744-.3645604.7141899-.7141899.0915154-.3496294-.0127406-.7214328-.2726972-.9725073l-.81-.809c.1890909-.3178852.3321801-.6609626.425-1.019h1.142c.5522847 0 1-.4477153 1-1s-.4477153-1-1-1zm-5 3c-1.1045695 0-2-.8954305-2-2s.8954305-2 2-2 2 .8954305 2 2-.8954305 2-2 2z" fill-rule="nonzero"/></g></g></g></svg>